<svg xmlns="http://www.w3.org/2000/svg" xmlns:xlink="http://www.w3.org/1999/xlink" preserveAspectRatio="xMidYMid" width="25.625" height="19.031" viewBox="0 0 25.625 19.031">
  <defs>
    <style>
      .cls-1 {
        fill: #fff;
        fill-rule: evenodd;
      }
    </style>
  </defs>
  <path d="M25.610,2.195 C25.610,2.599 25.283,2.927 24.879,2.927 L0.732,2.927 C0.328,2.927 -0.000,2.599 -0.000,2.195 L-0.000,0.731 C-0.000,0.328 0.328,-0.000 0.732,-0.000 L24.879,-0.000 C25.283,-0.000 25.610,0.328 25.610,0.731 L25.610,2.195 ZM25.610,10.244 C25.610,10.648 25.283,10.976 24.879,10.976 L0.732,10.976 C0.328,10.976 -0.000,10.648 -0.000,10.244 L-0.000,8.780 C-0.000,8.377 0.328,8.049 0.732,8.049 L24.879,8.049 C25.283,8.049 25.610,8.377 25.610,8.780 L25.610,10.244 ZM25.610,18.293 C25.610,18.696 25.283,19.025 24.879,19.025 L0.732,19.025 C0.328,19.025 -0.000,18.696 -0.000,18.293 L-0.000,16.830 C-0.000,16.426 0.328,16.098 0.732,16.098 L24.879,16.098 C25.283,16.098 25.610,16.426 25.610,16.830 L25.610,18.293 Z" class="cls-1"/>
</svg>
